<svg width="39" height="42" viewBox="0 0 39 42" fill="none" xmlns="http://www.w3.org/2000/svg">
<rect width="39" height="42" rx="8" fill="#197FE6" fill-opacity="0.32"/>
<path opacity="0.4" d="M28.5 16V24H14.35C12.78 24 11.5 25.28 11.5 26.85V16C11.5 12 12.5 11 16.5 11H23.5C27.5 11 28.5 12 28.5 16Z" fill="white"/>
<path d="M28.5 24V27.5C28.5 29.43 26.93 31 25 31H15C13.07 31 11.5 29.43 11.5 27.5V26.85C11.5 25.28 12.78 24 14.35 24H28.5Z" fill="white"/>
<path d="M24 16.75H16C15.59 16.75 15.25 16.41 15.25 16C15.25 15.59 15.59 15.25 16 15.25H24C24.41 15.25 24.75 15.59 24.75 16C24.75 16.41 24.41 16.75 24 16.75Z" fill="white"/>
<path d="M21 20.25H16C15.59 20.25 15.25 19.91 15.25 19.5C15.25 19.09 15.59 18.75 16 18.75H21C21.41 18.75 21.75 19.09 21.75 19.5C21.75 19.91 21.41 20.25 21 20.25Z" fill="white"/>
</svg>
