<svg width="27" height="27" viewBox="0 0 27 27" fill="none" xmlns="http://www.w3.org/2000/svg">
<path opacity="0.987" fill-rule="evenodd" clip-rule="evenodd" d="M12.165 1.7905C13.3885 1.65382 14.1124 1.65382 15.427 1.7905C17.7539 2.13491 19.911 3.21051 21.5864 4.86175C20.4543 5.93186 19.337 7.01759 18.235 8.11863C16.1245 6.32988 13.7687 5.917 11.1677 6.88C9.25974 7.7575 7.93111 9.1795 7.18186 11.146C5.95748 10.2345 4.74904 9.3017 3.55711 8.34813C3.47427 8.30453 3.37967 8.28856 3.28711 8.30257C5.18048 4.65194 8.13924 2.48069 12.1634 1.78882" fill="#F44336"/>
<path opacity="0.997" fill-rule="evenodd" clip-rule="evenodd" d="M3.28381 8.3025C3.37944 8.28788 3.47 8.30306 3.5555 8.34806C4.74744 9.30163 5.95587 10.2344 7.18025 11.1459C6.98758 11.9122 6.86613 12.6945 6.81744 13.4831C6.85906 14.2459 6.98 14.9946 7.18025 15.7292L3.37494 18.7583C1.71781 15.2955 1.68744 11.8103 3.28381 8.3025Z" fill="#FFC107"/>
<path opacity="0.999" fill-rule="evenodd" clip-rule="evenodd" d="M21.4061 22.4269C20.2213 21.3819 18.9808 20.4018 17.6902 19.4906C18.984 18.5771 19.7692 17.3239 20.046 15.7309H13.7061V11.3282C17.3623 11.2978 21.0169 11.3287 24.6697 11.421C25.3627 15.1841 24.5623 18.5771 22.2684 21.6C21.9957 21.8899 21.7067 22.1659 21.4061 22.4269Z" fill="#448AFF"/>
<path opacity="0.993" fill-rule="evenodd" clip-rule="evenodd" d="M7.18031 15.731C8.56406 19.1701 11.1009 20.7755 14.7909 20.5471C15.8268 20.4272 16.8199 20.0653 17.6901 19.4907C18.9816 20.4042 20.2202 21.383 21.4059 22.427C19.5272 24.1152 17.1317 25.117 14.6104 25.2687C14.0375 25.3145 13.462 25.3145 12.8891 25.2687C8.59388 24.7625 5.4225 22.5923 3.375 18.7583L7.18031 15.731Z" fill="#43A047"/>
</svg>
