<svg width="55" height="55" viewBox="0 0 55 55" fill="none" xmlns="http://www.w3.org/2000/svg">
<rect width="55" height="55" rx="13" fill="#197FE6" fill-opacity="0.51"/>
<path d="M27.5 25.0833C28.0554 25.0833 28.6053 24.9739 29.1184 24.7614C29.6315 24.5489 30.0978 24.2374 30.4905 23.8446C30.8832 23.4519 31.1947 22.9857 31.4072 22.4726C31.6198 21.9595 31.7292 21.4095 31.7292 20.8542C31.7292 20.2988 31.6198 19.7488 31.4072 19.2357C31.1947 18.7226 30.8832 18.2564 30.4905 17.8637C30.0978 17.471 29.6315 17.1595 29.1184 16.9469C28.6053 16.7344 28.0554 16.625 27.5 16.625C26.3784 16.625 25.3027 17.0706 24.5095 17.8637C23.7164 18.6568 23.2708 19.7325 23.2708 20.8542C23.2708 21.9758 23.7164 23.0515 24.5095 23.8446C25.3027 24.6378 26.3784 25.0833 27.5 25.0833ZM16.625 37.65V38.375H38.375V37.65C38.375 34.9433 38.375 33.59 37.8482 32.5557C37.3848 31.6463 36.6454 30.9069 35.736 30.4435C34.7017 29.9167 33.3483 29.9167 30.6417 29.9167H24.3583C21.6517 29.9167 20.2983 29.9167 19.264 30.4435C18.3546 30.9069 17.6152 31.6463 17.1518 32.5557C16.625 33.59 16.625 34.9433 16.625 37.65Z" fill="#0FB7FF" stroke="#0FB7FF" stroke-width="2" stroke-linecap="round" stroke-linejoin="round"/>
</svg>
