<svg width="34" height="34" viewBox="0 0 34 34" fill="none" xmlns="http://www.w3.org/2000/svg">
<path d="M29.0413 22.6667V26.2083C29.0413 28.9425 26.8172 31.1667 24.083 31.1667H9.91634C7.18217 31.1667 4.95801 28.9425 4.95801 26.2083V25.2875C4.95801 23.0633 6.77134 21.25 8.99551 21.25H27.6247C28.4038 21.25 29.0413 21.8875 29.0413 22.6667Z" fill="#197FE6"/>
<path d="M21.958 2.83325H12.0413C6.37467 2.83325 4.95801 4.24992 4.95801 9.91658V20.6549C6.03467 19.7058 7.45134 19.1249 8.99551 19.1249H27.6247C28.4038 19.1249 29.0413 18.4874 29.0413 17.7083V9.91658C29.0413 4.24992 27.6247 2.83325 21.958 2.83325ZM18.4163 15.2291H11.333C10.7522 15.2291 10.2705 14.7474 10.2705 14.1666C10.2705 13.5858 10.7522 13.1041 11.333 13.1041H18.4163C18.9972 13.1041 19.4788 13.5858 19.4788 14.1666C19.4788 14.7474 18.9972 15.2291 18.4163 15.2291ZM22.6663 10.2708H11.333C10.7522 10.2708 10.2705 9.78908 10.2705 9.20825C10.2705 8.62742 10.7522 8.14575 11.333 8.14575H22.6663C23.2472 8.14575 23.7288 8.62742 23.7288 9.20825C23.7288 9.78908 23.2472 10.2708 22.6663 10.2708Z" fill="#197FE6"/>
</svg>
