<svg width="34" height="34" viewBox="0 0 34 34" fill="none" xmlns="http://www.w3.org/2000/svg">
<path d="M4.95801 26.5624C4.37717 26.5624 3.89551 26.0808 3.89551 25.4999V9.91658C3.89551 3.66909 5.79384 1.77075 12.0413 1.77075H21.958C28.2055 1.77075 30.1038 3.66909 30.1038 9.91658V24.0833C30.1038 24.3099 30.1038 24.5224 30.0897 24.7491C30.0472 25.3299 29.523 25.7833 28.9563 25.7408C28.3755 25.6983 27.9222 25.1883 27.9647 24.6074C27.9788 24.4374 27.9788 24.2533 27.9788 24.0833V9.91658C27.9788 4.85909 27.0297 3.89575 21.958 3.89575H12.0413C6.96967 3.89575 6.02051 4.85909 6.02051 9.91658V25.4999C6.02051 26.0808 5.53884 26.5624 4.95801 26.5624Z" fill="#677688"/>
<path d="M24.083 32.2292H9.91634C6.60134 32.2292 3.89551 29.5233 3.89551 26.2083V25.2875C3.89551 22.4683 6.19051 20.1875 8.99551 20.1875H29.0413C29.6222 20.1875 30.1038 20.6692 30.1038 21.25V26.2083C30.1038 29.5233 27.398 32.2292 24.083 32.2292ZM8.99551 22.3125C7.35217 22.3125 6.02051 23.6442 6.02051 25.2875V26.2083C6.02051 28.3617 7.76301 30.1042 9.91634 30.1042H24.083C26.2363 30.1042 27.9788 28.3617 27.9788 26.2083V22.3125H8.99551Z" fill="#677688"/>
<path d="M22.6663 10.9792H11.333C10.7522 10.9792 10.2705 10.4976 10.2705 9.91675C10.2705 9.33591 10.7522 8.85425 11.333 8.85425H22.6663C23.2472 8.85425 23.7288 9.33591 23.7288 9.91675C23.7288 10.4976 23.2472 10.9792 22.6663 10.9792Z" fill="#677688"/>
<path d="M18.4163 15.9375H11.333C10.7522 15.9375 10.2705 15.4558 10.2705 14.875C10.2705 14.2942 10.7522 13.8125 11.333 13.8125H18.4163C18.9972 13.8125 19.4788 14.2942 19.4788 14.875C19.4788 15.4558 18.9972 15.9375 18.4163 15.9375Z" fill="#677688"/>
</svg>
