<svg width="34" height="34" viewBox="0 0 34 34" fill="none" xmlns="http://www.w3.org/2000/svg">
<path d="M17.9912 23.9134H18.9829C20.612 23.9134 21.9437 22.5818 21.9437 20.9526V19.9609H17.9912V23.9134Z" fill="#197FE6"/>
<path d="M12.0557 20.9526C12.0557 22.5818 13.3873 23.9134 15.0165 23.9134H16.0082V19.9609H12.0557V20.9526Z" fill="#197FE6"/>
<path d="M12.0557 16.9999V17.9916H16.0082V14.0391H15.0165C13.3873 14.0391 12.0557 15.3707 12.0557 16.9999Z" fill="#197FE6"/>
<path d="M28.3755 9.66156L20.2297 3.95239C18.0055 2.39406 14.6055 2.47906 12.4663 4.13656L5.36884 9.67572C3.93801 10.7807 2.83301 13.0474 2.83301 14.8324V24.6074C2.83301 28.2199 5.76551 31.1666 9.36384 31.1666H24.6213C28.2197 31.1666 31.1522 28.2341 31.1522 24.6216V15.0166C31.1663 13.1041 29.9338 10.7524 28.3755 9.66156ZM23.913 20.9524C23.913 23.6724 21.6888 25.8966 18.9688 25.8966H15.0163C12.2963 25.8966 10.0722 23.6866 10.0722 20.9524V16.9999C10.0722 14.2799 12.2963 12.0557 15.0163 12.0557H18.9688C21.6888 12.0557 23.913 14.2657 23.913 16.9999V20.9524V20.9524Z" fill="#197FE6"/>
<path d="M18.9829 14.0391H17.9912V17.9916H21.9437V16.9999C21.9437 15.3707 20.612 14.0391 18.9829 14.0391Z" fill="#197FE6"/>
</svg>
