<svg width="34" height="34" viewBox="0 0 34 34" fill="none" xmlns="http://www.w3.org/2000/svg">
<path d="M12.778 4.02324L5.14217 9.97324C3.86717 10.9649 2.83301 13.0757 2.83301 14.6766V25.1741C2.83301 28.4607 5.51051 31.1524 8.79717 31.1524H25.2022C28.4888 31.1524 31.1663 28.4607 31.1663 25.1882V14.8749C31.1663 13.1607 30.0188 10.9649 28.6163 9.9874L19.8613 3.85324C17.878 2.4649 14.6905 2.53574 12.778 4.02324Z" stroke="#677688" stroke-width="1.5" stroke-linecap="round" stroke-linejoin="round"/>
<path d="M14.875 25.5H19.125C21.4625 25.5 23.375 23.5875 23.375 21.25V17C23.375 14.6625 21.4625 12.75 19.125 12.75H14.875C12.5375 12.75 10.625 14.6625 10.625 17V21.25C10.625 23.5875 12.5375 25.5 14.875 25.5Z" stroke="#677688" stroke-width="1.5" stroke-linecap="round" stroke-linejoin="round"/>
<path d="M17 12.75V25.5" stroke="#677688" stroke-width="1.5" stroke-linecap="round" stroke-linejoin="round"/>
<path d="M10.625 19.125H23.375" stroke="#677688" stroke-width="1.5" stroke-linecap="round" stroke-linejoin="round"/>
</svg>
