<svg width="34" height="34" viewBox="0 0 34 34" fill="none" xmlns="http://www.w3.org/2000/svg">
<path d="M20.9244 27.9793H13.1186C12.4952 27.9793 11.7019 27.9084 11.1777 27.3701C10.6677 26.8459 10.6819 26.1943 10.6961 25.7551V24.4943C7.12608 22.1143 4.77441 17.9776 4.77441 14.0393C4.77441 10.3134 6.44608 6.82842 9.35025 4.49092C12.2544 2.15342 16.0652 1.27509 19.7911 2.09675C23.3327 2.87592 26.3927 5.24175 27.9794 8.42925C31.0536 14.6201 28.0927 21.3209 23.3611 24.5084V25.5709C23.3752 25.9818 23.3894 26.7326 22.8086 27.3276C22.3694 27.7526 21.7461 27.9793 20.9244 27.9793ZM12.8069 25.8401C12.8777 25.8401 12.9769 25.8543 13.1044 25.8543H20.9244C21.0661 25.8543 21.1652 25.8401 21.2219 25.8259C21.2219 25.7834 21.2219 25.7268 21.2219 25.6843V23.8993C21.2219 23.5309 21.4202 23.1768 21.7319 22.9926C25.9252 20.4568 28.7019 14.6626 26.0527 9.35009C24.7494 6.72925 22.2277 4.78842 19.3094 4.15092C16.2211 3.47092 13.0619 4.19342 10.6536 6.13425C8.24525 8.07509 6.87108 10.9509 6.87108 14.0393C6.87108 17.9776 9.59108 21.3776 12.2827 23.0068C12.6086 23.2051 12.7927 23.5451 12.7927 23.9134V25.8259C12.8069 25.8259 12.8069 25.8259 12.8069 25.8401Z" fill="#677688"/>
<path d="M21.9586 32.2292C21.8594 32.2292 21.7603 32.215 21.6611 32.1867C18.6011 31.3084 15.3853 31.3084 12.3253 32.1867C11.7586 32.3425 11.1778 32.0167 11.0078 31.45C10.8378 30.8834 11.1778 30.3025 11.7444 30.1325C15.1728 29.155 18.8136 29.155 22.2419 30.1325C22.8086 30.2884 23.1344 30.8834 22.9786 31.45C22.8511 31.9317 22.4261 32.2292 21.9586 32.2292Z" fill="#677688"/>
</svg>
