<svg width="34" height="34" viewBox="0 0 34 34" fill="none" xmlns="http://www.w3.org/2000/svg">
<path d="M27.214 9.00989C25.7407 6.03489 22.8932 3.83906 19.5924 3.11656C16.1357 2.35156 12.594 3.17323 9.88819 5.35489C7.16819 7.52239 5.62402 10.7666 5.62402 14.2374C5.62402 17.9066 7.81986 21.7457 11.1349 23.9699V25.1457C11.1207 25.5424 11.1065 26.1516 11.5882 26.6474C12.084 27.1574 12.8207 27.2141 13.4015 27.2141H20.669C21.434 27.2141 22.0149 27.0016 22.4115 26.6049C22.9499 26.0524 22.9357 25.3441 22.9215 24.9616V23.9699C27.3132 21.0091 30.0757 14.7616 27.214 9.00989Z" fill="#197FE6"/>
<path d="M21.6181 31.1667C21.5331 31.1667 21.434 31.1526 21.349 31.1242C18.5015 30.3167 15.5123 30.3167 12.6648 31.1242C12.1406 31.2659 11.5881 30.9684 11.4465 30.4442C11.2906 29.9201 11.6023 29.3676 12.1265 29.2259C15.3281 28.3192 18.6998 28.3192 21.9015 29.2259C22.4256 29.3817 22.7373 29.9201 22.5815 30.4442C22.4398 30.8834 22.0431 31.1667 21.6181 31.1667Z" fill="#197FE6"/>
</svg>
