<svg width="34" height="34" viewBox="0 0 34 34" fill="none" xmlns="http://www.w3.org/2000/svg">
<path d="M16.9997 2.83325C13.288 2.83325 10.2705 5.85075 10.2705 9.56242C10.2705 13.2033 13.118 16.1499 16.8297 16.2774C16.943 16.2633 17.0563 16.2633 17.1413 16.2774C17.1697 16.2774 17.1838 16.2774 17.2122 16.2774C17.2263 16.2774 17.2263 16.2774 17.2405 16.2774C20.8672 16.1499 23.7147 13.2033 23.7288 9.56242C23.7288 5.85075 20.7113 2.83325 16.9997 2.83325Z" fill="#197FE6"/>
<path d="M24.1964 20.0458C20.2439 17.4108 13.798 17.4108 9.8172 20.0458C8.01803 21.25 7.02637 22.8792 7.02637 24.6217C7.02637 26.3642 8.01803 27.9792 9.80303 29.1692C11.7864 30.5008 14.393 31.1667 16.9997 31.1667C19.6064 31.1667 22.213 30.5008 24.1964 29.1692C25.9814 27.965 26.973 26.35 26.973 24.5933C26.9589 22.8508 25.9814 21.2358 24.1964 20.0458Z" fill="#197FE6"/>
</svg>
