<svg width="34" height="34" viewBox="0 0 34 34" fill="none" xmlns="http://www.w3.org/2000/svg">
<path d="M17.2257 16.4616C17.1832 16.4616 17.1548 16.4616 17.1123 16.4616C17.0415 16.4474 16.9423 16.4474 16.8573 16.4616C12.749 16.3341 9.64648 13.1041 9.64648 9.12325C9.64648 5.07159 12.9473 1.77075 16.999 1.77075C21.0507 1.77075 24.3515 5.07159 24.3515 9.12325C24.3373 13.1041 21.2207 16.3341 17.2682 16.4616C17.254 16.4616 17.2398 16.4616 17.2257 16.4616ZM16.999 3.89575C14.1232 3.89575 11.7715 6.24742 11.7715 9.12325C11.7715 11.9566 13.9815 14.2374 16.8007 14.3366C16.8715 14.3224 17.0698 14.3224 17.254 14.3366C20.0307 14.2091 22.2123 11.9283 22.2265 9.12325C22.2265 6.24742 19.8748 3.89575 16.999 3.89575Z" fill="#677688"/>
<path d="M17.2398 31.9459C14.4631 31.9459 11.6723 31.2376 9.56146 29.8209C7.59229 28.5176 6.51562 26.7326 6.51562 24.7917C6.51562 22.8509 7.59229 21.0517 9.56146 19.7342C13.8115 16.9151 20.6965 16.9151 24.9181 19.7342C26.8731 21.0376 27.964 22.8226 27.964 24.7634C27.964 26.7042 26.8873 28.5034 24.9181 29.8209C22.7931 31.2376 20.0165 31.9459 17.2398 31.9459ZM10.7373 21.5192C9.37729 22.4259 8.64062 23.5876 8.64062 24.8059C8.64062 26.0101 9.39146 27.1717 10.7373 28.0642C14.2648 30.4301 20.2148 30.4301 23.7423 28.0642C25.1023 27.1576 25.839 25.9959 25.839 24.7776C25.839 23.5734 25.0881 22.4117 23.7423 21.5192C20.2148 19.1676 14.2648 19.1676 10.7373 21.5192Z" fill="#677688"/>
</svg>
